<?xml version="1.0" encoding="UTF-8" standalone="no"?>
<!DOCTYPE svg PUBLIC "-//W3C//DTD SVG 1.1//EN"
 "http://www.w3.org/Graphics/SVG/1.1/DTD/svg11.dtd">
<!-- Generated by graphviz version 2.26.3 (20100126.1600)
 -->
<!-- Title: G Pages: 1 -->
<svg width="596pt" height="1620pt"
 viewBox="0.00 0.00 596.00 1620.00" xmlns="http://www.w3.org/2000/svg" xmlns:xlink="http://www.w3.org/1999/xlink">
<g id="graph1" class="graph" transform="scale(1 1) rotate(0) translate(4 1616)">
<title>G</title>
<polygon fill="white" stroke="white" points="-4,5 -4,-1616 593,-1616 593,5 -4,5"/>
<g id="graph2" class="cluster"><title>cluster_Global</title>
<polyline fill="none" stroke="gray" points="232,-152 568,-152 "/>
<path fill="none" stroke="gray" d="M568,-152C574,-152 580,-158 580,-164"/>
<polyline fill="none" stroke="gray" points="580,-164 580,-1592 "/>
<path fill="none" stroke="gray" d="M580,-1592C580,-1598 574,-1604 568,-1604"/>
<polyline fill="none" stroke="gray" points="568,-1604 232,-1604 "/>
<path fill="none" stroke="gray" d="M232,-1604C226,-1604 220,-1598 220,-1592"/>
<polyline fill="none" stroke="gray" points="220,-1592 220,-164 "/>
<path fill="none" stroke="gray" d="M220,-164C220,-158 226,-152 232,-152"/>
<text text-anchor="middle" x="400" y="-1590.1" font-family="Times Roman,serif" font-size="11.00" fill="gray">Global</text>
</g>
<g id="graph3" class="cluster"><title>cluster_\MongoDB</title>
<polyline fill="none" stroke="gray" points="240,-496 560,-496 "/>
<path fill="none" stroke="gray" d="M560,-496C566,-496 572,-502 572,-508"/>
<polyline fill="none" stroke="gray" points="572,-508 572,-1562 "/>
<path fill="none" stroke="gray" d="M572,-1562C572,-1568 566,-1574 560,-1574"/>
<polyline fill="none" stroke="gray" points="560,-1574 240,-1574 "/>
<path fill="none" stroke="gray" d="M240,-1574C234,-1574 228,-1568 228,-1562"/>
<polyline fill="none" stroke="gray" points="228,-1562 228,-508 "/>
<path fill="none" stroke="gray" d="M228,-508C228,-502 234,-496 240,-496"/>
<text text-anchor="middle" x="400" y="-1560.1" font-family="Times Roman,serif" font-size="11.00" fill="gray">MongoDB</text>
</g>
<g id="graph4" class="cluster"><title>cluster_\MongoDB\Write</title>
<polyline fill="none" stroke="gray" points="248,-1038 552,-1038 "/>
<path fill="none" stroke="gray" d="M552,-1038C558,-1038 564,-1044 564,-1050"/>
<polyline fill="none" stroke="gray" points="564,-1050 564,-1532 "/>
<path fill="none" stroke="gray" d="M564,-1532C564,-1538 558,-1544 552,-1544"/>
<polyline fill="none" stroke="gray" points="552,-1544 248,-1544 "/>
<path fill="none" stroke="gray" d="M248,-1544C242,-1544 236,-1538 236,-1532"/>
<polyline fill="none" stroke="gray" points="236,-1532 236,-1050 "/>
<path fill="none" stroke="gray" d="M236,-1050C236,-1044 242,-1038 248,-1038"/>
<text text-anchor="middle" x="400" y="-1530.1" font-family="Times Roman,serif" font-size="11.00" fill="gray">Write</text>
</g>
<g id="graph5" class="cluster"><title>cluster_\MongoDB\Command</title>
<polyline fill="none" stroke="gray" points="446,-848 548,-848 "/>
<path fill="none" stroke="gray" d="M548,-848C554,-848 560,-854 560,-860"/>
<polyline fill="none" stroke="gray" points="560,-860 560,-1018 "/>
<path fill="none" stroke="gray" d="M560,-1018C560,-1024 554,-1030 548,-1030"/>
<polyline fill="none" stroke="gray" points="548,-1030 446,-1030 "/>
<path fill="none" stroke="gray" d="M446,-1030C440,-1030 434,-1024 434,-1018"/>
<polyline fill="none" stroke="gray" points="434,-1018 434,-860 "/>
<path fill="none" stroke="gray" d="M434,-860C434,-854 440,-848 446,-848"/>
<text text-anchor="middle" x="497" y="-1016.1" font-family="Times Roman,serif" font-size="11.00" fill="gray">Command</text>
</g>
<g id="graph6" class="cluster"><title>cluster_\MongoDB\Query</title>
<polyline fill="none" stroke="gray" points="458,-712 536,-712 "/>
<path fill="none" stroke="gray" d="M536,-712C542,-712 548,-718 548,-724"/>
<polyline fill="none" stroke="gray" points="548,-724 548,-828 "/>
<path fill="none" stroke="gray" d="M548,-828C548,-834 542,-840 536,-840"/>
<polyline fill="none" stroke="gray" points="536,-840 458,-840 "/>
<path fill="none" stroke="gray" d="M458,-840C452,-840 446,-834 446,-828"/>
<polyline fill="none" stroke="gray" points="446,-828 446,-724 "/>
<path fill="none" stroke="gray" d="M446,-724C446,-718 452,-712 458,-712"/>
<text text-anchor="middle" x="497" y="-826.1" font-family="Times Roman,serif" font-size="11.00" fill="gray">Query</text>
</g>
<g id="graph7" class="cluster"><title>cluster_\BSON</title>
<polyline fill="none" stroke="gray" points="245,-160 540,-160 "/>
<path fill="none" stroke="gray" d="M540,-160C546,-160 552,-166 552,-172"/>
<polyline fill="none" stroke="gray" points="552,-172 552,-476 "/>
<path fill="none" stroke="gray" d="M552,-476C552,-482 546,-488 540,-488"/>
<polyline fill="none" stroke="gray" points="540,-488 245,-488 "/>
<path fill="none" stroke="gray" d="M245,-488C239,-488 233,-482 233,-476"/>
<polyline fill="none" stroke="gray" points="233,-476 233,-172 "/>
<path fill="none" stroke="gray" d="M233,-172C233,-166 239,-160 245,-160"/>
<text text-anchor="middle" x="392.5" y="-474.1" font-family="Times Roman,serif" font-size="11.00" fill="gray">BSON</text>
</g>
<g id="graph8" class="cluster"><title>cluster_\BSON\Types</title>
<polyline fill="none" stroke="gray" points="253,-168 315,-168 "/>
<path fill="none" stroke="gray" d="M315,-168C321,-168 327,-174 327,-180"/>
<polyline fill="none" stroke="gray" points="327,-180 327,-446 "/>
<path fill="none" stroke="gray" d="M327,-446C327,-452 321,-458 315,-458"/>
<polyline fill="none" stroke="gray" points="315,-458 253,-458 "/>
<path fill="none" stroke="gray" d="M253,-458C247,-458 241,-452 241,-446"/>
<polyline fill="none" stroke="gray" points="241,-446 241,-180 "/>
<path fill="none" stroke="gray" d="M241,-180C241,-174 247,-168 253,-168"/>
<text text-anchor="middle" x="284" y="-444.1" font-family="Times Roman,serif" font-size="11.00" fill="gray">Types</text>
</g>
<!-- \\MongoDB\\Write\\WriteConcernError -->
<g id="node4" class="node"><title>\\MongoDB\\Write\\WriteConcernError</title>
<polygon fill="none" stroke="black" points="555,-1514 439,-1514 439,-1478 555,-1478 555,-1514"/>
<text text-anchor="middle" x="497" y="-1493.1" font-family="Times Roman,serif" font-size="11.00">WriteConcernError</text>
</g>
<!-- \\MongoDB\\Write\\UpdateBatch -->
<g id="node5" class="node"><title>\\MongoDB\\Write\\UpdateBatch</title>
<polygon fill="none" stroke="black" points="541,-1460 453,-1460 453,-1424 541,-1424 541,-1460"/>
<text text-anchor="middle" x="497" y="-1439.1" font-family="Times Roman,serif" font-size="11.00">UpdateBatch</text>
</g>
<!-- \\MongoDB\\Write\\WriteBatch -->
<g id="node14" class="node"><title>\\MongoDB\\Write\\WriteBatch</title>
<polygon fill="none" stroke="black" points="322,-1406 246,-1406 246,-1370 322,-1370 322,-1406"/>
<text text-anchor="middle" x="284" y="-1385.1" font-family="Times Roman,serif" font-size="11.00">WriteBatch</text>
</g>
<!-- \\MongoDB\\Write\\UpdateBatch&#45;&gt;\\MongoDB\\Write\\WriteBatch -->
<g id="edge9" class="edge"><title>\\MongoDB\\Write\\UpdateBatch&#45;&gt;\\MongoDB\\Write\\WriteBatch</title>
<path fill="none" stroke="black" stroke-dasharray="1,5" d="M452.866,-1430.81C417.781,-1421.92 368.753,-1409.49 332.559,-1400.31"/>
<polygon fill="none" stroke="black" points="333.267,-1396.88 322.714,-1397.81 331.547,-1403.66 333.267,-1396.88"/>
</g>
<!-- \\MongoDB\\Write\\InsertResult -->
<g id="node6" class="node"><title>\\MongoDB\\Write\\InsertResult</title>
<polygon fill="none" stroke="black" points="537,-1136 457,-1136 457,-1100 537,-1100 537,-1136"/>
<text text-anchor="middle" x="497" y="-1115.1" font-family="Times Roman,serif" font-size="11.00">InsertResult</text>
</g>
<!-- \\MongoDB\\Write\\WriteResult -->
<g id="node13" class="node"><title>\\MongoDB\\Write\\WriteResult</title>
<polygon fill="none" stroke="black" points="323,-1136 245,-1136 245,-1100 323,-1100 323,-1136"/>
<text text-anchor="middle" x="284" y="-1115.1" font-family="Times Roman,serif" font-size="11.00">WriteResult</text>
</g>
<!-- \\MongoDB\\Write\\InsertResult&#45;&gt;\\MongoDB\\Write\\WriteResult -->
<g id="edge11" class="edge"><title>\\MongoDB\\Write\\InsertResult&#45;&gt;\\MongoDB\\Write\\WriteResult</title>
<path fill="none" stroke="black" stroke-dasharray="1,5" d="M456.435,-1118C421.571,-1118 371.164,-1118 333.847,-1118"/>
<polygon fill="none" stroke="black" points="333.693,-1114.5 323.693,-1118 333.693,-1121.5 333.693,-1114.5"/>
</g>
<!-- \\MongoDB\\Write\\GeneratedId -->
<g id="node7" class="node"><title>\\MongoDB\\Write\\GeneratedId</title>
<polygon fill="none" stroke="black" points="539,-1352 455,-1352 455,-1316 539,-1316 539,-1352"/>
<text text-anchor="middle" x="497" y="-1331.1" font-family="Times Roman,serif" font-size="11.00">GeneratedId</text>
</g>
<!-- \\MongoDB\\Write\\InsertBatch -->
<g id="node8" class="node"><title>\\MongoDB\\Write\\InsertBatch</title>
<polygon fill="none" stroke="black" points="536,-1406 458,-1406 458,-1370 536,-1370 536,-1406"/>
<text text-anchor="middle" x="497" y="-1385.1" font-family="Times Roman,serif" font-size="11.00">InsertBatch</text>
</g>
<!-- \\MongoDB\\Write\\InsertBatch&#45;&gt;\\MongoDB\\Write\\WriteBatch -->
<g id="edge13" class="edge"><title>\\MongoDB\\Write\\InsertBatch&#45;&gt;\\MongoDB\\Write\\WriteBatch</title>
<path fill="none" stroke="black" stroke-dasharray="1,5" d="M457.436,-1388C422.245,-1388 370.658,-1388 332.894,-1388"/>
<polygon fill="none" stroke="black" points="332.634,-1384.5 322.634,-1388 332.634,-1391.5 332.634,-1384.5"/>
</g>
<!-- \\MongoDB\\Write\\DeleteBatch -->
<g id="node9" class="node"><title>\\MongoDB\\Write\\DeleteBatch</title>
<polygon fill="none" stroke="black" points="538,-1298 456,-1298 456,-1262 538,-1262 538,-1298"/>
<text text-anchor="middle" x="497" y="-1277.1" font-family="Times Roman,serif" font-size="11.00">DeleteBatch</text>
</g>
<!-- \\MongoDB\\Write\\DeleteBatch&#45;&gt;\\MongoDB\\Write\\WriteBatch -->
<g id="edge15" class="edge"><title>\\MongoDB\\Write\\DeleteBatch&#45;&gt;\\MongoDB\\Write\\WriteBatch</title>
<path fill="none" stroke="black" stroke-dasharray="1,5" d="M455.416,-1297.19C448.224,-1300.34 440.858,-1303.69 434,-1307 396.204,-1325.26 354.247,-1348.15 324.34,-1364.93"/>
<polygon fill="none" stroke="black" points="322.458,-1361.98 315.464,-1369.93 325.894,-1368.07 322.458,-1361.98"/>
</g>
<!-- \\MongoDB\\Write\\WriteError -->
<g id="node10" class="node"><title>\\MongoDB\\Write\\WriteError</title>
<polygon fill="none" stroke="black" points="533,-1190 461,-1190 461,-1154 533,-1154 533,-1190"/>
<text text-anchor="middle" x="497" y="-1169.1" font-family="Times Roman,serif" font-size="11.00">WriteError</text>
</g>
<!-- \\MongoDB\\Write\\UpdateResult -->
<g id="node11" class="node"><title>\\MongoDB\\Write\\UpdateResult</title>
<polygon fill="none" stroke="black" points="542,-1082 452,-1082 452,-1046 542,-1046 542,-1082"/>
<text text-anchor="middle" x="497" y="-1061.1" font-family="Times Roman,serif" font-size="11.00">UpdateResult</text>
</g>
<!-- \\MongoDB\\Write\\UpdateResult&#45;&gt;\\MongoDB\\Write\\WriteResult -->
<g id="edge17" class="edge"><title>\\MongoDB\\Write\\UpdateResult&#45;&gt;\\MongoDB\\Write\\WriteResult</title>
<path fill="none" stroke="black" stroke-dasharray="1,5" d="M451.828,-1075.45C417.113,-1084.25 369.211,-1096.4 333.466,-1105.46"/>
<polygon fill="none" stroke="black" points="332.561,-1102.08 323.728,-1107.93 334.282,-1108.86 332.561,-1102.08"/>
</g>
<!-- \\MongoDB\\Write\\DeleteResult -->
<g id="node12" class="node"><title>\\MongoDB\\Write\\DeleteResult</title>
<polygon fill="none" stroke="black" points="539,-1244 455,-1244 455,-1208 539,-1208 539,-1244"/>
<text text-anchor="middle" x="497" y="-1223.1" font-family="Times Roman,serif" font-size="11.00">DeleteResult</text>
</g>
<!-- \\MongoDB\\Write\\DeleteResult&#45;&gt;\\MongoDB\\Write\\WriteResult -->
<g id="edge19" class="edge"><title>\\MongoDB\\Write\\DeleteResult&#45;&gt;\\MongoDB\\Write\\WriteResult</title>
<path fill="none" stroke="black" stroke-dasharray="1,5" d="M454.403,-1208.36C447.534,-1205.34 440.536,-1202.16 434,-1199 396.204,-1180.74 354.247,-1157.85 324.34,-1141.07"/>
<polygon fill="none" stroke="black" points="325.894,-1137.93 315.464,-1136.07 322.458,-1144.02 325.894,-1137.93"/>
</g>
<!-- \\Countable -->
<g id="node59" class="node"><title>\\Countable</title>
<ellipse fill="none" stroke="black" cx="65" cy="-1388" rx="65.0538" ry="18.3848"/>
<text text-anchor="middle" x="65" y="-1384.4" font-family="Times Roman,serif" font-size="14.00" fill="gray">\Countable</text>
</g>
<!-- \\MongoDB\\Write\\WriteBatch&#45;&gt;\\Countable -->
<g id="edge41" class="edge"><title>\\MongoDB\\Write\\WriteBatch&#45;&gt;\\Countable</title>
<path fill="none" stroke="black" d="M245.351,-1388C216.405,-1388 175.883,-1388 140.579,-1388"/>
<polygon fill="none" stroke="black" points="140.294,-1384.5 130.294,-1388 140.294,-1391.5 140.294,-1384.5"/>
</g>
<!-- \\MongoDB\\Command\\CommandCursor -->
<g id="node16" class="node"><title>\\MongoDB\\Command\\CommandCursor</title>
<polygon fill="none" stroke="black" points="552,-1000 442,-1000 442,-964 552,-964 552,-1000"/>
<text text-anchor="middle" x="497" y="-979.1" font-family="Times Roman,serif" font-size="11.00">CommandCursor</text>
</g>
<!-- \\MongoDB\\Cursor -->
<g id="node26" class="node"><title>\\MongoDB\\Cursor</title>
<polygon fill="none" stroke="black" points="311,-878 257,-878 257,-842 311,-842 311,-878"/>
<text text-anchor="middle" x="284" y="-857.1" font-family="Times Roman,serif" font-size="11.00">Cursor</text>
</g>
<!-- \\MongoDB\\Command\\CommandCursor&#45;&gt;\\MongoDB\\Cursor -->
<g id="edge21" class="edge"><title>\\MongoDB\\Command\\CommandCursor&#45;&gt;\\MongoDB\\Cursor</title>
<path fill="none" stroke="black" stroke-dasharray="1,5" d="M452.521,-963.996C446.227,-961.144 439.896,-958.105 434,-955 392.793,-933.299 347.978,-904.123 318.167,-883.854"/>
<polygon fill="none" stroke="black" points="320.025,-880.885 309.795,-878.128 316.073,-886.663 320.025,-880.885"/>
</g>
<!-- \\MongoDB\\Command\\CommandResult -->
<g id="node17" class="node"><title>\\MongoDB\\Command\\CommandResult</title>
<polygon fill="none" stroke="black" points="550,-946 444,-946 444,-910 550,-910 550,-946"/>
<text text-anchor="middle" x="497" y="-925.1" font-family="Times Roman,serif" font-size="11.00">CommandResult</text>
</g>
<!-- \\MongoDB\\Command\\Command -->
<g id="node18" class="node"><title>\\MongoDB\\Command\\Command</title>
<polygon fill="none" stroke="black" points="534,-892 460,-892 460,-856 534,-856 534,-892"/>
<text text-anchor="middle" x="497" y="-871.1" font-family="Times Roman,serif" font-size="11.00">Command</text>
</g>
<!-- \\MongoDB\\Query\\Query -->
<g id="node20" class="node"><title>\\MongoDB\\Query\\Query</title>
<polygon fill="none" stroke="black" points="524,-810 470,-810 470,-774 524,-774 524,-810"/>
<text text-anchor="middle" x="497" y="-789.1" font-family="Times Roman,serif" font-size="11.00">Query</text>
</g>
<!-- \\MongoDB\\Query\\QueryCursor -->
<g id="node21" class="node"><title>\\MongoDB\\Query\\QueryCursor</title>
<polygon fill="none" stroke="black" points="540,-756 454,-756 454,-720 540,-720 540,-756"/>
<text text-anchor="middle" x="497" y="-735.1" font-family="Times Roman,serif" font-size="11.00">QueryCursor</text>
</g>
<!-- \\MongoDB\\Query\\QueryCursor&#45;&gt;\\MongoDB\\Cursor -->
<g id="edge23" class="edge"><title>\\MongoDB\\Query\\QueryCursor&#45;&gt;\\MongoDB\\Cursor</title>
<path fill="none" stroke="black" stroke-dasharray="1,5" d="M453.869,-755.395C447.134,-758.422 440.317,-761.673 434,-765 392.793,-786.701 347.978,-815.877 318.167,-836.146"/>
<polygon fill="none" stroke="black" points="316.073,-833.337 309.795,-841.872 320.025,-839.115 316.073,-833.337"/>
</g>
<!-- \\MongoDB\\ReadPreference -->
<g id="node22" class="node"><title>\\MongoDB\\ReadPreference</title>
<polygon fill="none" stroke="black" points="548,-702 446,-702 446,-666 548,-666 548,-702"/>
<text text-anchor="middle" x="497" y="-681.1" font-family="Times Roman,serif" font-size="11.00">ReadPreference</text>
</g>
<!-- \\MongoDB\\Manager -->
<g id="node23" class="node"><title>\\MongoDB\\Manager</title>
<polygon fill="none" stroke="black" points="529,-648 465,-648 465,-612 529,-612 529,-648"/>
<text text-anchor="middle" x="497" y="-627.1" font-family="Times Roman,serif" font-size="11.00">Manager</text>
</g>
<!-- \\MongoDB\\CursorId -->
<g id="node24" class="node"><title>\\MongoDB\\CursorId</title>
<polygon fill="none" stroke="black" points="528,-594 466,-594 466,-558 528,-558 528,-594"/>
<text text-anchor="middle" x="497" y="-573.1" font-family="Times Roman,serif" font-size="11.00">CursorId</text>
</g>
<!-- \\MongoDB\\Server -->
<g id="node25" class="node"><title>\\MongoDB\\Server</title>
<polygon fill="none" stroke="black" points="524,-540 470,-540 470,-504 524,-504 524,-540"/>
<text text-anchor="middle" x="497" y="-519.1" font-family="Times Roman,serif" font-size="11.00">Server</text>
</g>
<!-- \\Iterator -->
<g id="node61" class="node"><title>\\Iterator</title>
<ellipse fill="none" stroke="black" cx="65" cy="-860" rx="51.8276" ry="18.3848"/>
<text text-anchor="middle" x="65" y="-856.4" font-family="Times Roman,serif" font-size="14.00" fill="gray">\Iterator</text>
</g>
<!-- \\MongoDB\\Cursor&#45;&gt;\\Iterator -->
<g id="edge43" class="edge"><title>\\MongoDB\\Cursor&#45;&gt;\\Iterator</title>
<path fill="none" stroke="black" d="M256.706,-860C224.648,-860 170.437,-860 127.827,-860"/>
<polygon fill="none" stroke="black" points="127.82,-856.5 117.82,-860 127.82,-863.5 127.82,-856.5"/>
</g>
<!-- \\BSON\\Types\\Object -->
<g id="node29" class="node"><title>\\BSON\\Types\\Object</title>
<polygon fill="none" stroke="black" points="311,-428 257,-428 257,-392 311,-392 311,-428"/>
<text text-anchor="middle" x="284" y="-407.1" font-family="Times Roman,serif" font-size="11.00">Object</text>
</g>
<!-- \\BSON\\Types\\ArrayObj -->
<g id="node30" class="node"><title>\\BSON\\Types\\ArrayObj</title>
<polygon fill="none" stroke="black" points="316,-320 252,-320 252,-284 316,-284 316,-320"/>
<text text-anchor="middle" x="284" y="-299.1" font-family="Times Roman,serif" font-size="11.00">ArrayObj</text>
</g>
<!-- \\BSON\\Types\\ObjectID -->
<g id="node31" class="node"><title>\\BSON\\Types\\ObjectID</title>
<polygon fill="none" stroke="black" points="315,-374 253,-374 253,-338 315,-338 315,-374"/>
<text text-anchor="middle" x="284" y="-353.1" font-family="Times Roman,serif" font-size="11.00">ObjectID</text>
</g>
<!-- \\BSON\\Types\\Binary -->
<g id="node32" class="node"><title>\\BSON\\Types\\Binary</title>
<polygon fill="none" stroke="black" points="311,-266 257,-266 257,-230 311,-230 311,-266"/>
<text text-anchor="middle" x="284" y="-245.1" font-family="Times Roman,serif" font-size="11.00">Binary</text>
</g>
<!-- \\BSON\\Types\\DateTime -->
<g id="node33" class="node"><title>\\BSON\\Types\\DateTime</title>
<polygon fill="none" stroke="black" points="318,-212 250,-212 250,-176 318,-176 318,-212"/>
<text text-anchor="middle" x="284" y="-191.1" font-family="Times Roman,serif" font-size="11.00">DateTime</text>
</g>
<!-- \\BSON\\Object -->
<g id="node34" class="node"><title>\\BSON\\Object</title>
<polygon fill="none" stroke="black" points="524,-428 470,-428 470,-392 524,-392 524,-428"/>
<text text-anchor="middle" x="497" y="-407.1" font-family="Times Roman,serif" font-size="11.00">Object</text>
</g>
<!-- \\BSON\\Object&#45;&gt;\\BSON\\Types\\Object -->
<g id="edge25" class="edge"><title>\\BSON\\Object&#45;&gt;\\BSON\\Types\\Object</title>
<path fill="none" stroke="black" stroke-dasharray="1,5" d="M469.59,-410C431.886,-410 363.885,-410 321.496,-410"/>
<polygon fill="none" stroke="black" points="321.305,-406.5 311.305,-410 321.305,-413.5 321.305,-406.5"/>
</g>
<!-- \\BSON\\ArrayDynamic -->
<g id="node35" class="node"><title>\\BSON\\ArrayDynamic</title>
<polygon fill="none" stroke="black" points="543,-319 451,-319 451,-283 543,-283 543,-319"/>
<text text-anchor="middle" x="497" y="-298.1" font-family="Times Roman,serif" font-size="11.00">ArrayDynamic</text>
</g>
<!-- \\BSON\\ArrayDynamic&#45;&gt;\\BSON\\Types\\ArrayObj -->
<g id="edge29" class="edge"><title>\\BSON\\ArrayDynamic&#45;&gt;\\BSON\\Types\\ArrayObj</title>
<path fill="none" stroke="black" stroke-dasharray="1,5" d="M450.256,-301.219C413.252,-301.393 362.017,-301.634 326.238,-301.802"/>
<polygon fill="none" stroke="black" points="326.106,-298.302 316.122,-301.849 326.139,-305.302 326.106,-298.302"/>
</g>
<!-- \\ArrayObject -->
<g id="node49" class="node"><title>\\ArrayObject</title>
<ellipse fill="none" stroke="black" cx="284" cy="-126" rx="72.832" ry="18.3848"/>
<text text-anchor="middle" x="284" y="-122.4" font-family="Times Roman,serif" font-size="14.00" fill="gray">\ArrayObject</text>
</g>
<!-- \\BSON\\ArrayDynamic&#45;&gt;\\ArrayObject -->
<g id="edge27" class="edge"><title>\\BSON\\ArrayDynamic&#45;&gt;\\ArrayObject</title>
<path fill="none" stroke="black" d="M450.356,-283.336C444.516,-280.057 438.888,-276.288 434,-272 391.361,-234.593 408.591,-201.462 366,-164 357.434,-156.466 347.12,-150.146 336.742,-144.959"/>
<polygon fill="none" stroke="black" points="338.187,-141.771 327.647,-140.69 335.212,-148.107 338.187,-141.771"/>
</g>
<!-- \\BSON\\ArrayFixed -->
<g id="node36" class="node"><title>\\BSON\\ArrayFixed</title>
<polygon fill="none" stroke="black" points="534,-263 460,-263 460,-227 534,-227 534,-263"/>
<text text-anchor="middle" x="497" y="-242.1" font-family="Times Roman,serif" font-size="11.00">ArrayFixed</text>
</g>
<!-- \\BSON\\ArrayFixed&#45;&gt;\\BSON\\Types\\ArrayObj -->
<g id="edge33" class="edge"><title>\\BSON\\ArrayFixed&#45;&gt;\\BSON\\Types\\ArrayObj</title>
<path fill="none" stroke="black" stroke-dasharray="1,5" d="M459.898,-254.929C422.588,-264.913 365.151,-280.284 326.143,-290.722"/>
<polygon fill="none" stroke="black" points="324.91,-287.429 316.155,-293.395 326.72,-294.191 324.91,-287.429"/>
</g>
<!-- \\SplFixedArray -->
<g id="node52" class="node"><title>\\SplFixedArray</title>
<ellipse fill="none" stroke="black" cx="284" cy="-72" rx="80.8184" ry="18.3848"/>
<text text-anchor="middle" x="284" y="-68.4" font-family="Times Roman,serif" font-size="14.00" fill="gray">\SplFixedArray</text>
</g>
<!-- \\BSON\\ArrayFixed&#45;&gt;\\SplFixedArray -->
<g id="edge31" class="edge"><title>\\BSON\\ArrayFixed&#45;&gt;\\SplFixedArray</title>
<path fill="none" stroke="black" d="M459.743,-231.081C450.656,-226.55 441.423,-220.875 434,-214 390.434,-173.655 412.266,-136.218 366,-99 361.362,-95.2686 356.188,-92.0452 350.758,-89.2618"/>
<polygon fill="none" stroke="black" points="351.975,-85.9693 341.426,-84.9812 349.056,-92.3319 351.975,-85.9693"/>
</g>
<!-- \\BSON\\ObjectID -->
<g id="node37" class="node"><title>\\BSON\\ObjectID</title>
<polygon fill="none" stroke="black" points="528,-374 466,-374 466,-338 528,-338 528,-374"/>
<text text-anchor="middle" x="497" y="-353.1" font-family="Times Roman,serif" font-size="11.00">ObjectID</text>
</g>
<!-- \\BSON\\ObjectID&#45;&gt;\\BSON\\Types\\ObjectID -->
<g id="edge35" class="edge"><title>\\BSON\\ObjectID&#45;&gt;\\BSON\\Types\\ObjectID</title>
<path fill="none" stroke="black" stroke-dasharray="1,5" d="M465.571,-356C428.418,-356 366.466,-356 325.423,-356"/>
<polygon fill="none" stroke="black" points="325.211,-352.5 315.211,-356 325.211,-359.5 325.211,-352.5"/>
</g>
<!-- \\BSON\\DateTime -->
<g id="node38" class="node"><title>\\BSON\\DateTime</title>
<polygon fill="none" stroke="black" points="531,-205 463,-205 463,-169 531,-169 531,-205"/>
<text text-anchor="middle" x="497" y="-184.1" font-family="Times Roman,serif" font-size="11.00">DateTime</text>
</g>
<!-- \\BSON\\DateTime&#45;&gt;\\BSON\\Types\\DateTime -->
<g id="edge39" class="edge"><title>\\BSON\\DateTime&#45;&gt;\\BSON\\Types\\DateTime</title>
<path fill="none" stroke="black" stroke-dasharray="1,5" d="M462.304,-188.14C425.944,-189.335 368.684,-191.217 328.901,-192.524"/>
<polygon fill="none" stroke="black" points="328.561,-189.034 318.681,-192.86 328.791,-196.03 328.561,-189.034"/>
</g>
<!-- \\DateTime -->
<g id="node56" class="node"><title>\\DateTime</title>
<ellipse fill="none" stroke="black" cx="284" cy="-18" rx="62.2254" ry="18.3848"/>
<text text-anchor="middle" x="284" y="-14.4" font-family="Times Roman,serif" font-size="14.00" fill="gray">\DateTime</text>
</g>
<!-- \\BSON\\DateTime&#45;&gt;\\DateTime -->
<g id="edge37" class="edge"><title>\\BSON\\DateTime&#45;&gt;\\DateTime</title>
<path fill="none" stroke="black" d="M484.74,-168.528C463.843,-138.426 418.46,-78.7643 366,-45 358.583,-40.2261 350.242,-36.2203 341.795,-32.8816"/>
<polygon fill="none" stroke="black" points="342.85,-29.5406 332.256,-29.3902 340.444,-36.1141 342.85,-29.5406"/>
</g>
</g>
</svg>
